<?xml version="1.0" encoding="utf-8"?>
<!-- Generator: Adobe Illustrator 23.0.4, SVG Export Plug-In . SVG Version: 6.00 Build 0)  -->
<svg version="1.1" id="Layer_1" xmlns="http://www.w3.org/2000/svg" xmlns:xlink="http://www.w3.org/1999/xlink" x="0px" y="0px"
	 viewBox="0 0 50 50" style="enable-background:new 0 0 50 50;" xml:space="preserve">
<style type="text/css">
	.st0{fill:#FFFFFF;}
</style>
<g id="Fd5NK0.tif">
	<g>
		<path d="M10.2,28.2c-2.1-0.6-4.2-1-6.2-0.7c-2.2,0.3-2.8,1.8-1.6,3.7c1.1,1.7,2.8,2.9,4.5,3.9c0.3,0.2,0.6,0.4,0.9,0.6
			c-2.9-1.1-5.4-2.9-7.1-5.6c-0.9-1.6-0.3-3,1.6-3.4c2.2-0.6,4.4-0.3,6.5,0.4c1.4,0.4,2.6,0.4,3.6-0.9c-0.2,0-0.4-0.1-0.7-0.1
			c-2.5-0.4-4.8-1.2-7-2.6c-0.6-0.4-0.8-0.8-0.5-1.5c1.9-5.2,5.1-9.2,9.7-12.3c0.5-0.3,1-0.8,1.4-1.2c0.9-1,1.9-1.6,3.2-1.8
			c1.8-0.3,3.5-0.5,5.3-0.8c2.9-0.4,5.8-0.3,8.7,0.2c0.4,0.1,0.8,0.1,1.2,0c6.3-1.7,12.1,0.6,15.6,6.1c0.5,0.8,0.4,1-0.6,1.2
			c-2.3,0.4-4.2,1.6-5.9,3.1c-0.4,0.4-0.5,0.8-0.3,1.4c2.7,8.4-0.5,17.7-7.8,22.6c-2.1,1.4-4.5,2.4-7,2.9c-0.6,0.1-0.9,0.4-1.1,0.9
			c-1.2,3.3-3.8,5-7.2,5.5c-0.6,0.1-0.9-0.3-0.5-0.9c0.5-1.1,1-2.2,0.8-3.4c-0.4-2.2-1.7-3.6-3.6-4.5c-2.4-1.2-4.4-2.7-5.7-5.1
			C8.9,33.3,8.7,30.8,10.2,28.2z M18.7,17.1c-3.1-0.4-4.6-2.4-4.8-6c-3,1.4-7.9,7.8-8.6,11.3c8.8,6,21.4,1.4,24.4-9.4
			c1.7,6.3,0.1,11.7-4.8,16.1c0.3,0.3,0.5,0.7,0.8,1c0.5-0.4,0.9-0.7,1.3-1c-1.6,2.4-3.9,3.6-6.9,4.1c2.6,2,5.3,2.5,8.2,1.7
			c2.9-0.8,4.8-2.8,6.1-5.5c-0.8,3.6-3,5.9-6.5,6.9c-0.5,0.1-0.8,0.3-1,0.8c-0.8,2.2-2.3,3.7-4.6,4.3c-1.1,0.3-2.2,0.3-3.3,0.4
			c1.6,1.8,2,4,1.3,6.4c2.7-0.8,4.4-2.4,5.1-4.9c0.2-0.8,0.6-1,1.3-1.2C37.9,40.3,44.8,28.5,41,17.9c-0.3-0.9-0.2-1.4,0.4-2
			c1.7-1.8,3.8-3,6.2-3.7c-0.2-0.3-0.4-0.6-0.6-0.8c-3.2-4.1-8.4-5.7-13.5-4.2c-0.4,0.1-1,0.1-1.4,0.1c-2.1-0.1-4.2-0.4-6.4-0.4
			c-1.2,0-2.4,0.3-3.8,0.4c1.7,1.5,2.3,2.7,2.2,3.9c-1.1-2.4-2.8-3.5-5.1-3.3c-1.9,0.2-3.6,1.8-3.9,3.7
			C14.9,13.9,15.9,15.6,18.7,17.1z M25.9,36.8c-0.6-0.1-1.1-0.1-1.6-0.2c-2.5-0.3-4.5-1.5-6-3.4c-0.2-0.2-0.3-0.7-0.2-0.9
			c0.1-0.2,0.5-0.3,0.8-0.4c0.3-0.1,0.7,0,1,0c1.7,0,3.3-0.4,4.9-1.3c-1.1-1.7-2.6-2.8-4.3-3.6c-0.4-0.2-1.1-0.1-1.4,0.1
			c-3,2-5.1,4.7-6.3,8c-0.2,0.5-0.3,1.1-0.3,1.6c0,0.3,0.1,0.7,0.4,1c2.3,2.1,5,3.2,8.1,2.8C23.2,40.3,24.9,39.2,25.9,36.8z
			 M29.8,16.3c-0.1,0-0.2,0-0.3,0c-2.2,4.6-5.9,7.4-10.5,9.2c1.1,0.5,2.2,0.9,3.3,1.3c-0.1-0.6-0.2-1.1-0.3-1.7
			c1,0.6,1.9,1.2,2.8,1.7c1.2,0.6,1.5,0.4,1.4-0.9C26.2,25,26,24,25.8,23c0.5,0.3,0.8,0.5,1.2,0.7c1.1,0.6,1.4,0.5,1.4-0.8
			c0-0.9-0.1-1.8-0.1-2.7c1.2,0.3,1.4,0.3,1.5-1C29.9,18.3,29.8,17.3,29.8,16.3z M14.3,29.8c-0.9-0.3-1.8-0.7-2.7-1.1
			c-0.5-0.2-0.8,0-1,0.4c-1.2,2.1-0.5,5.8,1.3,7.3c0.3-1.1,0.4-2.3,0.8-3.4C13.1,32,13.7,31,14.3,29.8z M18.7,26.5
			c-2.2-0.8-5.5-0.2-6.9,1.3c0.9,0.4,1.9,0.8,2.8,1.2c0.2,0.1,0.5,0,0.6-0.1C16.5,28.1,17.6,27.2,18.7,26.5z"/>
		<path d="M18.7,17.1c-2.8-1.4-3.8-3.2-3.4-5.6c0.4-1.9,2-3.5,3.9-3.7c2.3-0.3,4,0.8,5.1,3.3c0.1-1.2-0.6-2.4-2.2-3.9
			c1.4-0.2,2.6-0.4,3.8-0.4c2.1,0.1,4.2,0.3,6.4,0.4c0.5,0,1,0.1,1.4-0.1c5-1.5,10.3,0.1,13.5,4.2c0.2,0.2,0.3,0.5,0.6,0.8
			c-2.4,0.7-4.5,1.9-6.2,3.7c-0.6,0.6-0.7,1.1-0.4,2c3.8,10.7-3.1,22.4-14.3,24.3c-0.8,0.1-1.1,0.4-1.3,1.2
			c-0.7,2.5-2.5,4.1-5.1,4.9c0.8-2.5,0.4-4.6-1.3-6.4c1.1-0.1,2.3-0.2,3.3-0.4c2.3-0.6,3.9-2,4.6-4.3c0.2-0.5,0.5-0.7,1-0.8
			c3.5-1,5.7-3.3,6.5-6.9c-1.3,2.6-3.2,4.6-6.1,5.5c-2.9,0.9-5.6,0.3-8.2-1.7c2.9-0.5,5.3-1.7,6.9-4.1c-0.4,0.3-0.8,0.6-1.3,1
			c-0.3-0.3-0.5-0.7-0.8-1c4.9-4.4,6.5-9.8,4.8-16.1c-3,10.8-15.7,15.4-24.4,9.4c0.7-3.5,5.6-9.9,8.6-11.3
			C14.1,14.7,15.6,16.7,18.7,17.1z M16.6,12.2c0,1.8,0.9,3,2.5,3.5c1.4,0.4,3-0.1,3.7-1.2c-1.5,0-2.4-0.8-2.3-2
			c0.1-1.2,1.1-1.8,2.9-1.6c-0.6-1.2-1.6-1.8-2.8-2c-1.2-0.1-2.3,0.3-3.1,1.3c0.7,0.3,1.2,0.7,0.9,1.4C18,12.5,17.3,12.4,16.6,12.2z
			"/>
		<path class="st0" d="M25.9,36.8c-1,2.3-2.7,3.5-4.9,3.7c-3.1,0.4-5.8-0.7-8.1-2.8c-0.2-0.2-0.4-0.6-0.4-1c0-0.5,0.1-1.1,0.3-1.6
			c1.2-3.4,3.3-6.1,6.3-8c0.4-0.2,1-0.3,1.4-0.1c1.8,0.7,3.2,1.9,4.3,3.6c-1.6,0.9-3.2,1.3-4.9,1.3c-0.3,0-0.7-0.1-1,0
			c-0.3,0.1-0.7,0.2-0.8,0.4c-0.1,0.2,0,0.7,0.2,0.9c1.6,1.9,3.6,3.1,6,3.4C24.8,36.7,25.3,36.8,25.9,36.8z"/>
		<path class="st0" d="M29.8,16.3c0,1,0.1,2,0,3c-0.1,1.2-0.3,1.3-1.5,1c0,0.9,0.1,1.8,0.1,2.7c0,1.3-0.3,1.4-1.4,0.8
			c-0.4-0.2-0.7-0.4-1.2-0.7c0.1,1,0.3,1.9,0.4,2.9c0.1,1.3-0.3,1.6-1.4,0.9c-0.9-0.5-1.8-1.1-2.8-1.7c0.1,0.6,0.2,1.1,0.3,1.7
			c-1.1-0.5-2.2-0.9-3.3-1.3c4.6-1.8,8.3-4.6,10.5-9.2C29.6,16.3,29.7,16.3,29.8,16.3z"/>
		<path class="st0" d="M14.3,29.8c-0.6,1.2-1.2,2.2-1.6,3.3c-0.4,1.1-0.6,2.3-0.8,3.4c-1.8-1.6-2.5-5.2-1.3-7.3
			c0.2-0.4,0.5-0.6,1-0.4C12.5,29.1,13.4,29.5,14.3,29.8z"/>
		<path class="st0" d="M18.7,26.5c-1.1,0.8-2.2,1.6-3.4,2.4C15.1,29,14.8,29,14.7,29c-0.9-0.4-1.9-0.8-2.8-1.2
			C13.2,26.2,16.5,25.7,18.7,26.5z"/>
		<path class="st0" d="M16.6,12.2c0.7,0.2,1.4,0.2,1.7-0.5c0.3-0.8-0.2-1.1-0.9-1.4c0.8-1,1.9-1.4,3.1-1.3c1.3,0.1,2.2,0.8,2.8,2
			c-1.8-0.2-2.8,0.4-2.9,1.6c-0.1,1.2,0.8,2,2.3,2c-0.8,1.1-2.3,1.6-3.7,1.2C17.5,15.2,16.5,14,16.6,12.2z"/>
	</g>
</g>
</svg>
